<?xml version="1.0" encoding="UTF-8" standalone="no"?>
<svg
   version="1.0"
   width="1072.000000pt"
   height="1036.000000pt"
   viewBox="0 0 1072.000000 1036.000000"
   preserveAspectRatio="xMidYMid meet"
   id="svg123"
   sodipodi:docname="ryanDrewLogoSecondary.svg"
   inkscape:version="1.1.2 (b8e25be833, 2022-02-05)"
   xmlns:inkscape="http://www.inkscape.org/namespaces/inkscape"
   xmlns:sodipodi="http://sodipodi.sourceforge.net/DTD/sodipodi-0.dtd"
   xmlns="http://www.w3.org/2000/svg"
   xmlns:svg="http://www.w3.org/2000/svg">
  <defs
     id="defs127" />
  <sodipodi:namedview
     id="namedview125"
     pagecolor="#ffffff"
     bordercolor="#666666"
     borderopacity="1.0"
     inkscape:pageshadow="2"
     inkscape:pageopacity="0.0"
     inkscape:pagecheckerboard="0"
     inkscape:document-units="pt"
     showgrid="false"
     inkscape:zoom="0.42539025"
     inkscape:cx="-407.86078"
     inkscape:cy="667.62226"
     inkscape:window-width="1920"
     inkscape:window-height="1017"
     inkscape:window-x="-8"
     inkscape:window-y="-8"
     inkscape:window-maximized="1"
     inkscape:current-layer="svg123" />
  <g
     transform="translate(0.000000,1036.000000) scale(0.100000,-0.100000)"
     fill="#000000"
     stroke="none"
     id="g121">
    <path
       d="M2015 10240 c-248 -21 -511 -104 -700 -222 -406 -255 -701 -724 -874 -1391 -139 -537 -209 -1165 -241 -2177 -29 -929 -50 -3829 -31 -4460 6 -206 15 -541 21 -745 15 -539 29 -655 101 -797 58 -115 170 -205 279 -224 19 -3 60 -18 90 -32 209 -96 434 43 471 294 14 90 13 625 -1 829 -6 88 -22 272 -35 409 -18 181 -25 310 -25 475 -1 242 -9 603 -36 1476 -21 682 -24 1870 -6 2210 73 1389 247 2359 521 2904 200 400 469 643 809 732 100 27 278 36 379 19 113 -18 167 -41 305 -132 94 -62 154 -112 254 -212 149 -149 211 -225 317 -387 126 -193 203 -351 276 -567 244 -724 64 -1453 -492 -1988 -188 -182 -340 -290 -737 -524 -407 -240 -524 -316 -678 -439 -517 -416 -603 -911 -281 -1616 281 -615 1011 -1540 1703 -2159 423 -378 857 -667 1281 -851 149 -65 487 -180 655 -224 283 -73 569 -105 915 -104 539 1 1020 93 1505 290 855 345 1604 1082 2121 2088 465 902 697 1894 676 2885 -16 730 -148 1507 -367 2143 -229 669 -532 1162 -945 1540 -348 318 -678 503 -1222 682 -459 151 -769 206 -1178 206 -216 1 -313 -10 -504 -52 -340 -75 -473 -160 -660 -419 -141 -194 -204 -356 -232 -591 -14 -123 -7 -502 15 -859 41 -643 52 -1675 27 -2450 -40 -1203 -28 -2265 34 -3055 35 -448 35 -446 68 -539 18 -52 44 -104 61 -124 34 -39 194 -122 234 -122 14 0 50 -12 81 -27 66 -32 194 -43 265 -23 101 28 188 132 201 241 3 30 -1 189 -9 354 -9 165 -23 563 -31 885 -8 322 -19 738 -25 925 -5 187 -12 468 -15 625 -3 157 -7 409 -10 560 -3 151 -13 600 -21 996 -20 922 -15 2121 10 2314 21 159 50 279 88 354 140 278 514 369 1057 256 171 -36 279 -73 456 -160 270 -133 468 -274 685 -490 210 -207 317 -345 450 -575 383 -663 589 -1595 590 -2670 1 -1423 -361 -2616 -1042 -3428 -638 -762 -1579 -1202 -2568 -1200 -359 0 -653 50 -890 151 -462 198 -901 565 -1471 1232 -380 445 -801 981 -1021 1300 -150 217 -275 443 -316 567 -76 232 -37 409 122 561 108 103 228 169 626 349 414 187 721 366 935 546 494 415 782 984 835 1651 67 848 -226 1633 -825 2204 -332 317 -658 507 -1126 656 -346 110 -624 149 -904 126z"
       id="path119" />
  </g>
  <path
     style="fill:#3c7d78;stroke:#3c7d78;stroke-width:1.66225"
     d="m 82.287155,1352.8715 c -25.749212,-8.8824 -34.083301,-15.514 -43.73657,-34.8021 -9.120231,-18.223 -10.894038,-39.855 -14.644606,-178.5941 -3.284815,-121.5102 0.05784,-541.93379 5.240172,-659.0838 8.412407,-190.16811 31.607598,-293.43462 83.294609,-370.83298 21.19249,-31.734561 53.43727,-60.239732 83.2977,-73.637199 62.95919,-28.2478779 133.96486,-25.9249569 219.62236,7.184855 41.33906,15.979089 75.5507,36.400907 108.64118,64.850754 63.03902,54.19838 103.88912,124.96079 119.52132,207.04026 5.26581,27.64894 7.21872,80.356 4.00625,108.12383 -11.36457,98.23221 -58.95304,177.97499 -137.66017,230.67354 -27.46565,18.3897 -50.06359,30.36195 -113.04199,59.88901 -41.14457,19.29039 -56.36086,28.33879 -69.13086,41.1088 -12.73692,12.73692 -18.05373,24.15127 -19.01933,40.83158 -1.07083,18.49785 1.93217,30.22763 13.9393,54.4474 20.83253,42.02166 67.16765,105.98333 143.42073,197.97995 36.89782,44.516 56.63799,66.5331 85.75798,95.6501 64.60934,64.6026 121.95486,100.2759 180.11461,112.0449 36.64597,7.4155 95.64023,8.5572 136.29149,2.6376 151.45307,-22.0546 274.65377,-112.889 346.03087,-255.1247 61.6084,-122.76899 87.1768,-295.82747 68.9006,-466.35106 -12.4958,-116.5908 -46.3332,-216.9427 -95.5883,-283.4876 -12.9936,-17.55472 -45.7743,-51.20782 -65.5228,-67.26656 -37.8218,-30.75519 -83.5841,-53.04699 -127.99362,-62.34835 -23.60468,-4.94388 -63.4989,-6.24462 -82.28159,-2.68276 -25.57539,4.85 -47.38449,19.47495 -56.1434,37.64918 -4.9006,10.16845 -9.78927,30.73691 -11.84609,49.84087 -2.94874,27.38813 -3.95148,161.4385 -2.00191,267.62294 4.24198,231.0423 8.44878,410.45479 11.86818,506.15644 3.80879,106.6001 3.88885,114.2985 1.25316,120.5134 -6.57928,15.5139 -19.38055,23.9202 -36.21618,23.7824 -13.52149,-0.1107 -42.30966,-9.3363 -55.53688,-17.7977 -14.06385,-8.9965 -19.47295,-22.4256 -22.49669,-55.8523 -10.52037,-116.30041 -11.84858,-212.88956 -6.97117,-506.954 1.32606,-79.94983 -0.38618,-195.80185 -3.79616,-256.85185 -4.83952,-86.64383 -3.43967,-131.51391 4.87471,-156.25191 9.97948,-29.69219 39.16467,-68.757351 61.31923,-82.077429 17.69014,-10.635924 51.12852,-20.02531 84.35671,-23.687092 20.10608,-2.215711 65.08241,-0.944418 91.22678,2.578599 69.03382,9.302477 161.56432,42.87718 212.92402,77.259472 31.5657,21.13141 65.5884,52.49108 89.6424,82.62592 73.4293,91.99214 120.9214,242.44466 131.382,416.21189 11.5081,191.16755 -52.5655,392.90642 -171.0535,538.5704 -18.0354,22.1719 -61.2237,65.3021 -81.7583,81.6485 -55.4054,44.1046 -113.8939,73.717 -181.18575,91.7333 -69.87782,18.7086 -153.17774,22.7911 -224.12694,10.9844 C 695.4401,1320.1715 628.57279,1296.3134 579.7716,1268.9972 521.37833,1236.3119 464.68602,1191.4111 406.21057,1131.5354 328.1161,1051.571 255.99913,953.88567 226.76917,888.47493 190.11793,806.45683 195.04319,748.28512 242.95045,697.3594 c 18.83933,-20.02634 43.98026,-37.99398 103.41639,-73.90931 71.3035,-43.0864 86.42208,-54.00019 113.37425,-81.84255 22.44991,-23.19141 34.62518,-40.10654 47.94567,-66.61111 17.25388,-34.33108 23.35795,-59.42838 24.56217,-100.98921 0.74058,-25.5591 0.35471,-32.92597 -2.64716,-50.53808 -6.86391,-40.27107 -24.6138,-83.33849 -50.07742,-121.50524 -10.73617,-16.09217 -19.13687,-26.05676 -37.24939,-44.18382 -41.19996,-41.23303 -64.74305,-52.55496 -103.92122,-49.976 -55.73369,3.66876 -100.71284,37.82696 -131.86447,100.14088 -33.29634,66.60407 -53.54555,167.13666 -67.09661,333.11882 -4.23538,51.87769 -5.03,252.35411 -1.50549,379.82511 1.49141,53.94015 3.39369,125.00151 4.22728,157.91411 0.89727,35.4269 2.90929,74.422 4.9316,95.5797 4.56172,47.7253 5.04167,134.3486 0.82759,149.3675 -5.51157,19.643 -21.29203,33.4527 -39.53725,34.5995 -6.5581,0.4122 -12.745593,-0.889 -26.049235,-5.4782 z"
     id="path166"
     transform="scale(0.75)" />
</svg>
